<svg width="30" height="30" viewBox="0 0 30 30" fill="none" xmlns="http://www.w3.org/2000/svg">
<path d="M14.9701 16.1881C17.9701 16.1881 20.376 13.7525 20.376 10.7822C20.376 7.8119 17.9701 5.34656 14.9701 5.34656C11.9701 5.34656 9.56416 7.7822 9.56416 10.7525C9.56416 13.7228 11.9701 16.1881 14.9701 16.1881ZM14.9701 6.7723C17.1681 6.7723 18.9503 8.55448 18.9503 10.7525C18.9503 12.9505 17.1681 14.7327 14.9701 14.7327C12.7721 14.7327 10.9899 12.9802 10.9899 10.7822C10.9899 8.58418 12.7721 6.7723 14.9701 6.7723ZM5.58396 24.6535H24.4156C24.8018 24.6535 25.1285 24.3268 25.1285 23.9406C25.1285 20.198 22.0691 17.1386 18.3265 17.1386H11.6731C7.9305 17.1386 4.87109 20.198 4.87109 23.9406C4.87109 24.3268 5.19783 24.6535 5.58396 24.6535ZM11.6731 18.5644H18.3265C21.0592 18.5644 23.2869 20.5842 23.6434 23.2277H6.35624C6.71268 20.5842 8.9404 18.5644 11.6731 18.5644Z" fill="black"/>
</svg>
