<svg width="23" height="23" viewBox="0 0 23 23" fill="none" xmlns="http://www.w3.org/2000/svg">
<path d="M21.8079 10.4932C21.523 10.2077 21.0605 10.2072 20.7749 10.4921L11.738 19.5289L11.7385 0.727364C11.7384 0.325641 11.4127 -7.63049e-06 11.0111 -7.62522e-06C10.6094 4.98947e-05 10.2837 0.325698 10.2837 0.727364L10.2833 19.5291L1.24635 10.4921C0.96121 10.2077 0.499639 10.2076 0.214445 10.4921C-0.0710942 10.7771 -0.0716125 11.2396 0.213294 11.5252L10.4941 21.806C10.494 21.8058 10.4942 21.8061 10.4941 21.806C10.7793 22.091 11.2421 22.0912 11.5271 21.806L21.8079 11.5252C22.0924 11.24 22.0924 10.7784 21.8079 10.4932Z" fill="black"/>
</svg>
